<?xml version="1.0" encoding="UTF-8"?>
<svg id="_图层_2" data-name="图层 2" xmlns="http://www.w3.org/2000/svg" xmlns:xlink="http://www.w3.org/1999/xlink" viewBox="0 0 225.52 32.07">
  <defs>
    <style>
      .cls-1 {
        fill: url(#LOGO渐变);
      }

      .cls-2 {
        fill: #0f172a;
      }
    </style>
    <linearGradient id="LOGO渐变" x1="190.54" y1="0" x2="190.54" y2="32.07" gradientUnits="userSpaceOnUse">
      <stop offset="0" stop-color="#ea00ff"/>
      <stop offset=".43" stop-color="#e801ff"/>
      <stop offset=".59" stop-color="#e108ff"/>
      <stop offset=".7" stop-color="#d513ff"/>
      <stop offset=".79" stop-color="#c423ff"/>
      <stop offset=".86" stop-color="#ae38ff"/>
      <stop offset=".93" stop-color="#9353ff"/>
      <stop offset=".99" stop-color="#7371ff"/>
      <stop offset="1" stop-color="#6f76ff"/>
    </linearGradient>
  </defs>
  <g id="_图层_2-2" data-name="图层 2">
    <path class="cls-1" d="M187.92.2l-17.77,31.13c-.18.31,0,.73.32.73h11.98c.13,0,.26-.08.33-.22l11.01-20.87c.15-.28.28-.31.44-.04l10.56,17.08c.19.31.04.65-.28.64h-3.28c-.1-.07-.19-.12-.29-.19,0,0-6.57-10.87-6.64-10.97s-.2-.09-.25.02-1.69,3.36-1.69,3.36c-.12.25-.11.56.02.79l5.77,10.21c.07.12.19.2.32.2h12.13c.32,0,.5-.43.31-.74l-16.56-27.55c-.16-.27-.49-.26-.64.02l-13.62,24.71c-.07.14-.2.22-.34.22l-2.87.02c-.31,0-.48-.43-.31-.73L191.96.73c.18-.31,0-.73-.32-.73h-3.41c-.13,0-.25.08-.32.2Z"/>
    <path class="cls-2" d="M1.1,2.14h23.82c2.85,0,5.47,3.18,5.53,6.86.05,2.61-.22,5.64-2.54,7.28l-12.08,8.05c-.27.18-.16.65.15.65l13.78-.06c.48,0,.87.45.87,1.01v4.92c0,.56-.39,1.01-.87,1.01H.87c-.48,0-.87-.45-.87-1.01v-4.41c0-.36.16-.69.43-.87,3.06-2.06,21.3-14.34,22.02-14.81,1.43-.92.79-2.49-.52-2.49-1.61,0-17.01-.26-20.84-.32-.48,0-.86-.46-.86-1.01v-3.77c0-.56.39-1.01.87-1.01ZM64.97,2.14h-21.79c-2.99,0-5.41,2.77-5.41,6.18v17.35c0,3.41,2.42,6.18,5.41,6.18h21.79c2.99,0,5.41-2.77,5.41-6.18V8.32c0-3.41-2.42-6.18-5.41-6.18ZM62.14,9.92v13.87c0,.51-.41.92-.92.92h-14.13c-.51,0-.92-.41-.92-.92v-13.87c0-.51.41-.92.92-.92h14.13c.51,0,.92.41.92.92ZM76.82,2.54v5.06c0,.22.15.4.34.4h13.2c.28,0,.44.37.28.63l-14.18,22.6c-.16.26,0,.63.28.63h10.64c.11,0,.21-.06.28-.16L105.89,2.77c.17-.26,0-.63-.28-.63h-28.46c-.19,0-.34.18-.34.4ZM113.18,2.54v5.06c0,.22.15.4.34.4h13.2c.28,0,.44.37.28.63l-14.18,22.6c-.16.26,0,.63.28.63h10.64c.11,0,.21-.06.28-.16l18.24-28.92c.17-.26,0-.63-.28-.63h-28.46c-.19,0-.34.18-.34.4ZM225.52,7.55V.47c0-.2-.17-.37-.37-.37h-7.79c-.2,0-.37.17-.37.37v7.08c0,.2.17.37.37.37h7.79c.2,0,.37-.17.37-.37ZM225.52,31.32v-14.74c0-.3-.24-.53-.53-.53h-7.23c-.3,0-.53.24-.53.53v14.74c0,.3.24.53.53.53h7.23c.3,0,.53-.24.53-.53ZM159.57,31.11v-5.25c0-.26-.21-.48-.48-.48h-5.2c-.26,0-.48.21-.48.48v5.25c0,.26.21.48.48.48h5.2c.26,0,.48-.21.48-.48Z"/>
  </g>
</svg>
